<svg aria-hidden="true" style="position: absolute; width: 0; height: 0; overflow: hidden;" version="1.1" xmlns="http://www.w3.org/2000/svg" xmlns:xlink="http://www.w3.org/1999/xlink">
<defs>
<symbol id="icon-map-pin" viewBox="0 0 32 32">
<path d="M24.485 23.152l-8.485 8.485-8.485-8.485c-4.686-4.686-4.686-12.284 0-16.971s12.284-4.686 16.971 0c4.686 4.686 4.686 12.284 0 16.971zM16 20c2.945 0 5.333-2.388 5.333-5.333s-2.388-5.333-5.333-5.333c-2.946 0-5.333 2.388-5.333 5.333s2.388 5.333 5.333 5.333zM16 17.333c-1.473 0-2.667-1.194-2.667-2.667s1.194-2.667 2.667-2.667 2.667 1.194 2.667 2.667c0 1.473-1.194 2.667-2.667 2.667z"></path>
</symbol>
<symbol id="icon-phone" viewBox="0 0 32 32">
<path d="M28 21.893v4.715c0 0.7-0.541 1.281-1.239 1.33-0.583 0.041-1.059 0.062-1.427 0.062-11.782 0-21.333-9.551-21.333-21.333 0-0.368 0.021-0.844 0.062-1.427 0.049-0.698 0.63-1.239 1.33-1.239h4.715c0.342 0 0.629 0.259 0.663 0.6 0.031 0.306 0.060 0.551 0.086 0.736 0.27 1.884 0.821 3.676 1.609 5.335 0.127 0.266 0.044 0.585-0.196 0.756l-2.878 2.056c1.752 4.092 5.034 7.374 9.126 9.126l2.052-2.873c0.173-0.243 0.496-0.326 0.765-0.198 1.658 0.788 3.451 1.338 5.334 1.607 0.184 0.026 0.428 0.055 0.731 0.085 0.341 0.034 0.6 0.321 0.6 0.663z"></path>
</symbol>
<symbol id="icon-star" viewBox="0 0 33 32">
<path d="M15.563 0.899c0.29-0.893 1.554-0.893 1.845 0l3.214 9.893c0.13 0.399 0.502 0.67 0.922 0.67h10.402c0.939 0 1.33 1.202 0.57 1.754l-8.415 6.114c-0.34 0.247-0.482 0.685-0.352 1.084l3.214 9.892c0.29 0.893-0.732 1.636-1.492 1.084l-8.415-6.114c-0.34-0.247-0.8-0.247-1.14 0l-8.415 6.114c-0.76 0.552-1.782-0.191-1.492-1.084l3.214-9.892c0.13-0.4-0.012-0.837-0.352-1.084l-8.415-6.114c-0.76-0.552-0.369-1.754 0.57-1.754h10.402c0.42 0 0.792-0.271 0.922-0.67l3.214-9.893z"></path>
</symbol>
</defs>
</svg>
