<svg width="35" height="35" viewBox="0 0 35 35" fill="none" xmlns="http://www.w3.org/2000/svg">
<path d="M26.7808 25.3223L17.5 34.603L8.21923 25.3223C3.09359 20.1966 3.09359 11.8864 8.21923 6.76073C13.3449 1.6351 21.6551 1.6351 26.7808 6.76073C31.9064 11.8864 31.9064 20.1966 26.7808 25.3223ZM17.5 21.8748C20.7216 21.8748 23.3333 19.2631 23.3333 16.0415C23.3333 12.8198 20.7216 10.2082 17.5 10.2082C14.2783 10.2082 11.6667 12.8198 11.6667 16.0415C11.6667 19.2631 14.2783 21.8748 17.5 21.8748ZM17.5 18.9582C15.8891 18.9582 14.5833 17.6524 14.5833 16.0415C14.5833 14.4307 15.8891 13.1248 17.5 13.1248C19.1109 13.1248 20.4167 14.4307 20.4167 16.0415C20.4167 17.6524 19.1109 18.9582 17.5 18.9582Z" fill="#F5BE32"/>
</svg>
