<svg width="35" height="35" viewBox="0 0 35 35" fill="none" xmlns="http://www.w3.org/2000/svg">
<path d="M30.625 23.9458V29.1026C30.625 29.8683 30.0331 30.5035 29.2695 30.5575C28.6316 30.6025 28.1113 30.625 27.7083 30.625C14.8216 30.625 4.375 20.1784 4.375 7.29167C4.375 6.88874 4.39753 6.36835 4.44259 5.73052C4.49658 4.96691 5.13179 4.375 5.8973 4.375H11.0543C11.4286 4.375 11.7421 4.65853 11.7797 5.03096C11.8135 5.36531 11.8448 5.63375 11.8739 5.83628C12.1688 7.89647 12.7714 9.8574 13.6335 11.6711C13.7719 11.9622 13.6817 12.3107 13.4194 12.498L10.2718 14.7464C12.1881 19.2224 15.7776 22.812 20.2536 24.7282L22.4979 21.5861C22.6876 21.3207 23.0402 21.2294 23.3348 21.3693C25.1484 22.2307 27.1091 22.8325 29.169 23.1268C29.3703 23.1557 29.637 23.1868 29.969 23.2203C30.3415 23.2579 30.625 23.5715 30.625 23.9458Z" fill="#F5BE32"/>
</svg>
